<svg xmlns="http://www.w3.org/2000/svg" xmlns:xlink="http://www.w3.org/1999/xlink" width="70" zoomAndPan="magnify" viewBox="0 0 52.5 52.499999" height="70" preserveAspectRatio="xMidYMid meet" version="1.0"><defs><clipPath id="fa86e3961a"><path d="M 1.632812 10.824219 L 23.921875 10.824219 L 23.921875 36.828125 L 1.632812 36.828125 Z M 1.632812 10.824219 " clip-rule="nonzero"/></clipPath><clipPath id="dde4144ad4"><path d="M 24.042969 10 L 52.003906 10 L 52.003906 35.703125 L 24.042969 35.703125 Z M 24.042969 10 " clip-rule="nonzero"/></clipPath></defs><g clip-path="url(#fa86e3961a)"><path fill="#100f0d" d="M 20.660156 32.1875 C 19.132812 29.941406 16.503906 25.96875 15.796875 24.234375 C 15.363281 23.164062 14.996094 21.765625 14.832031 21.117188 L 15.386719 21.117188 C 15.628906 21.601562 16.386719 23.09375 17.160156 24.199219 C 18.519531 26.140625 22.066406 30.050781 23.082031 31.164062 C 22.644531 31.386719 21.808594 31.78125 20.660156 32.1875 Z M 17.871094 34.292969 C 16.78125 31.671875 14.773438 26.691406 14.40625 24.679688 C 14.171875 23.417969 14.101562 21.777344 14.082031 21.117188 L 14.203125 21.117188 C 14.34375 21.691406 14.738281 23.253906 15.234375 24.46875 C 15.953125 26.238281 18.503906 30.109375 20.054688 32.390625 C 20.183594 32.582031 20.304688 32.761719 20.417969 32.925781 C 20.660156 33.277344 20.859375 33.566406 21.007812 33.78125 C 20.441406 33.894531 19.359375 34.097656 17.871094 34.292969 Z M 17.855469 35.835938 C 17.003906 35.953125 14.890625 36.207031 12.691406 36.207031 C 10.820312 36.207031 8.457031 35.941406 7.527344 35.828125 C 7.597656 35.664062 7.691406 35.449219 7.796875 35.191406 C 7.875 35.011719 7.957031 34.8125 8.046875 34.597656 C 9.140625 31.976562 11.1875 26.902344 11.578125 24.792969 C 11.820312 23.460938 11.890625 21.78125 11.910156 21.117188 L 13.46875 21.117188 C 13.488281 21.78125 13.558594 23.460938 13.804688 24.792969 C 14.179688 26.84375 16.128906 31.699219 17.238281 34.371094 C 17.328125 34.582031 17.410156 34.78125 17.484375 34.964844 C 17.636719 35.324219 17.761719 35.621094 17.855469 35.835938 Z M 4.34375 33.820312 C 4.511719 33.582031 4.753906 33.226562 5.050781 32.796875 C 5.164062 32.628906 5.285156 32.449219 5.414062 32.261719 C 6.96875 29.964844 9.441406 26.203125 10.148438 24.46875 C 10.640625 23.253906 11.039062 21.691406 11.175781 21.117188 L 11.296875 21.117188 C 11.277344 21.777344 11.207031 23.417969 10.976562 24.679688 C 10.59375 26.75 8.484375 31.957031 7.417969 34.507812 C 5.96875 34.285156 4.882812 33.988281 4.34375 33.820312 Z M 2.484375 31.148438 C 3.523438 30.011719 7.039062 26.128906 8.394531 24.199219 C 9.167969 23.09375 9.925781 21.601562 10.164062 21.117188 L 10.546875 21.117188 C 10.386719 21.765625 10.019531 23.164062 9.582031 24.234375 C 8.890625 25.9375 6.34375 29.796875 4.808594 32.0625 C 3.734375 31.691406 2.925781 31.347656 2.484375 31.148438 Z M 9.507812 13.988281 C 9.53125 13.949219 9.546875 13.902344 9.546875 13.855469 L 9.699219 11.441406 L 10.191406 11.441406 L 10.445312 12.875 C 10.453125 13.21875 10.636719 13.523438 10.921875 13.683594 L 12.675781 14.664062 C 12.765625 14.714844 12.878906 14.714844 12.96875 14.664062 L 14.722656 13.683594 C 15.007812 13.523438 15.191406 13.21875 15.199219 12.875 L 15.453125 11.441406 L 15.945312 11.441406 L 16.097656 13.855469 C 16.101562 13.902344 16.113281 13.949219 16.136719 13.988281 C 16.148438 14.003906 17.117188 15.75 16.160156 16.980469 C 15.851562 17.378906 15.550781 18.003906 15.410156 18.316406 L 10.234375 18.316406 C 10.09375 18.003906 9.792969 17.378906 9.484375 16.980469 C 8.527344 15.75 9.5 14.003906 9.507812 13.988281 Z M 10.3125 20.5 L 10.3125 18.984375 L 15.28125 18.984375 L 15.28125 20.5 Z M 23.800781 31.039062 C 23.757812 30.988281 19.195312 26.035156 17.660156 23.839844 C 16.863281 22.707031 16.054688 21.089844 15.890625 20.753906 L 15.890625 18.742188 C 15.90625 18.707031 16.277344 17.828125 16.640625 17.359375 C 17.75 15.9375 16.898438 14.121094 16.703125 13.746094 L 16.535156 11.113281 C 16.527344 10.949219 16.394531 10.824219 16.230469 10.824219 L 15.195312 10.824219 C 15.046875 10.824219 14.921875 10.929688 14.894531 11.078125 L 14.59375 12.792969 C 14.589844 12.8125 14.589844 12.828125 14.589844 12.847656 C 14.589844 12.972656 14.527344 13.089844 14.425781 13.144531 L 12.824219 14.042969 L 11.21875 13.144531 C 11.121094 13.089844 11.054688 12.972656 11.054688 12.847656 C 11.054688 12.828125 11.054688 12.8125 11.050781 12.792969 L 10.75 11.078125 C 10.722656 10.929688 10.597656 10.824219 10.449219 10.824219 L 9.414062 10.824219 C 9.253906 10.824219 9.117188 10.949219 9.109375 11.113281 L 8.941406 13.746094 C 8.746094 14.121094 7.898438 15.9375 9.003906 17.359375 C 9.289062 17.726562 9.582031 18.351562 9.699219 18.617188 L 9.699219 20.695312 L 9.691406 20.691406 C 9.683594 20.710938 8.78125 22.574219 7.894531 23.839844 C 6.355469 26.035156 1.796875 30.988281 1.75 31.039062 C 1.683594 31.109375 1.65625 31.207031 1.675781 31.304688 C 1.691406 31.398438 1.75 31.480469 1.839844 31.527344 C 1.882812 31.550781 2.859375 32.039062 4.445312 32.59375 C 3.945312 33.320312 3.617188 33.789062 3.605469 33.808594 C 3.550781 33.886719 3.535156 33.988281 3.5625 34.078125 C 3.589844 34.171875 3.660156 34.246094 3.75 34.277344 C 3.839844 34.308594 5.125 34.773438 7.171875 35.101562 C 6.949219 35.625 6.8125 35.945312 6.804688 35.960938 C 6.765625 36.050781 6.773438 36.152344 6.820312 36.238281 C 6.867188 36.320312 6.949219 36.378906 7.046875 36.390625 C 7.078125 36.394531 10.28125 36.824219 12.691406 36.824219 C 15.574219 36.824219 18.316406 36.394531 18.34375 36.390625 C 18.433594 36.375 18.515625 36.316406 18.5625 36.234375 C 18.609375 36.148438 18.613281 36.050781 18.574219 35.960938 C 18.566406 35.945312 18.390625 35.535156 18.117188 34.882812 C 20.292969 34.589844 21.574219 34.292969 21.59375 34.289062 C 21.695312 34.265625 21.773438 34.191406 21.8125 34.097656 C 21.847656 34 21.832031 33.894531 21.773438 33.808594 C 21.761719 33.792969 21.472656 33.375 21.019531 32.71875 C 22.703125 32.109375 23.6875 31.542969 23.730469 31.515625 C 23.8125 31.46875 23.867188 31.386719 23.878906 31.296875 C 23.894531 31.203125 23.867188 31.109375 23.800781 31.039062 " fill-opacity="1" fill-rule="nonzero"/></g><path fill="#100f0d" d="M 39.417969 30 C 39.195312 30 39.011719 30.179688 39.011719 30.40625 C 39.011719 30.628906 39.195312 30.8125 39.417969 30.8125 C 39.644531 30.8125 39.824219 30.628906 39.824219 30.40625 C 39.824219 30.179688 39.644531 30 39.417969 30 Z M 39.417969 30 " fill-opacity="1" fill-rule="nonzero"/><path fill="#100f0d" d="M 39.457031 26.507812 C 39.234375 26.507812 39.050781 26.691406 39.050781 26.914062 C 39.050781 27.136719 39.234375 27.320312 39.457031 27.320312 C 39.683594 27.320312 39.863281 27.136719 39.863281 26.914062 C 39.863281 26.691406 39.683594 26.507812 39.457031 26.507812 Z M 39.457031 26.507812 " fill-opacity="1" fill-rule="nonzero"/><path fill="#100f0d" d="M 39.496094 23.496094 C 39.273438 23.496094 39.089844 23.679688 39.089844 23.902344 C 39.089844 24.128906 39.273438 24.308594 39.496094 24.308594 C 39.71875 24.308594 39.902344 24.128906 39.902344 23.902344 C 39.902344 23.679688 39.71875 23.496094 39.496094 23.496094 Z M 39.496094 23.496094 " fill-opacity="1" fill-rule="nonzero"/><path fill="#100f0d" d="M 39.632812 20.003906 C 39.40625 20.003906 39.222656 20.1875 39.222656 20.414062 C 39.222656 20.636719 39.40625 20.816406 39.632812 20.816406 C 39.855469 20.816406 40.039062 20.636719 40.039062 20.414062 C 40.039062 20.1875 39.855469 20.003906 39.632812 20.003906 Z M 39.632812 20.003906 " fill-opacity="1" fill-rule="nonzero"/><path fill="#100f0d" d="M 39.824219 16.746094 C 39.597656 16.746094 39.417969 16.925781 39.417969 17.152344 C 39.417969 17.375 39.597656 17.558594 39.824219 17.558594 C 40.046875 17.558594 40.230469 17.375 40.230469 17.152344 C 40.230469 16.929688 40.046875 16.746094 39.824219 16.746094 Z M 39.824219 16.746094 " fill-opacity="1" fill-rule="nonzero"/><g clip-path="url(#dde4144ad4)"><path fill="#100f0d" d="M 52.722656 33.074219 L 52.105469 31.105469 L 47.503906 14.539062 C 47.476562 14.445312 47.40625 14.367188 47.3125 14.332031 L 42.9375 12.703125 L 42.0625 11.242188 C 42.058594 11.238281 42.058594 11.234375 42.054688 11.230469 C 42.015625 11.171875 41.960938 11.128906 41.898438 11.105469 C 37.917969 9.675781 35.132812 11.0625 35.015625 11.121094 C 35.011719 11.125 35.007812 11.132812 35.003906 11.136719 C 34.988281 11.144531 34.972656 11.148438 34.957031 11.160156 C 34.921875 11.195312 34.894531 11.234375 34.878906 11.277344 C 34.875 11.277344 34.875 11.277344 34.871094 11.28125 L 34.304688 12.660156 C 34.289062 12.664062 34.273438 12.660156 34.257812 12.667969 C 34.207031 12.6875 34.167969 12.722656 34.136719 12.761719 L 29.648438 14.328125 C 29.550781 14.363281 29.476562 14.441406 29.449219 14.539062 L 24.847656 31.105469 C 24.816406 31.199219 24.492188 32.121094 24.253906 33.09375 C 24.230469 33.179688 24.246094 33.265625 24.292969 33.339844 C 24.34375 33.410156 24.417969 33.460938 24.5 33.472656 L 27.605469 34 C 27.621094 34.003906 27.640625 34.003906 27.65625 34.003906 C 27.789062 34.003906 27.90625 33.921875 27.953125 33.792969 C 27.953125 33.792969 28.277344 32.824219 28.546875 31.984375 L 31.199219 23.761719 L 30.839844 33.683594 C 30.835938 33.730469 30.847656 33.78125 30.867188 33.824219 C 30.910156 33.917969 31.9375 36.011719 37.703125 36.011719 C 37.953125 36.011719 38.214844 36.007812 38.480469 35.996094 C 38.726562 35.992188 44.527344 35.890625 46.09375 33.886719 C 46.140625 33.828125 46.164062 33.753906 46.160156 33.683594 L 45.765625 23.789062 L 48.40625 31.984375 C 48.421875 32.03125 48.453125 32.070312 48.484375 32.105469 C 48.761719 32.859375 49.085938 33.796875 49.085938 33.796875 C 49.128906 33.921875 49.25 34.003906 49.378906 34.003906 C 49.398438 34.003906 49.414062 34.003906 49.433594 34 L 52.480469 33.472656 C 52.566406 33.460938 52.644531 33.40625 52.691406 33.332031 C 52.738281 33.253906 52.75 33.160156 52.722656 33.074219 Z M 42.390625 13 L 41.488281 16.035156 L 40.3125 13.640625 L 41.75 11.933594 Z M 41.265625 11.546875 L 39.730469 13.371094 L 39.21875 13.773438 C 39.132812 13.839844 39.089844 13.941406 39.101562 14.046875 L 39.179688 14.855469 L 38.597656 16.382812 L 37.847656 14.828125 L 37.855469 14.019531 C 37.855469 13.925781 37.8125 13.832031 37.738281 13.773438 L 37.226562 13.371094 L 35.671875 11.527344 C 36.484375 11.234375 38.5625 10.703125 41.265625 11.546875 Z M 35.25 11.992188 L 36.652344 13.65625 L 35.84375 15.796875 L 34.773438 13.121094 C 34.785156 13.105469 34.796875 13.09375 34.804688 13.074219 Z M 27.445312 33.34375 L 24.9375 32.917969 C 25.085938 32.363281 25.25 31.855469 25.347656 31.558594 L 27.851562 32.117188 C 27.695312 32.59375 27.539062 33.066406 27.445312 33.34375 Z M 31.460938 33.613281 L 31.902344 21.546875 C 31.90625 21.390625 31.796875 21.257812 31.644531 21.230469 C 31.496094 21.203125 31.34375 21.292969 31.296875 21.4375 L 28.042969 31.523438 L 25.53125 30.964844 L 30.003906 14.859375 L 34.214844 13.390625 L 35.566406 16.765625 C 35.613281 16.882812 35.726562 16.960938 35.851562 16.960938 C 35.855469 16.960938 35.855469 16.960938 35.855469 16.960938 C 35.984375 16.960938 36.097656 16.878906 36.144531 16.761719 L 37.148438 14.097656 L 37.234375 14.167969 L 37.226562 14.894531 C 37.226562 14.898438 37.230469 14.902344 37.230469 14.90625 C 37.230469 14.925781 37.238281 14.945312 37.242188 14.964844 C 37.246094 14.984375 37.25 15.003906 37.257812 15.023438 C 37.257812 15.027344 37.257812 15.03125 37.257812 15.035156 L 38.332031 17.257812 C 38.332031 17.257812 38.332031 17.257812 38.332031 17.261719 C 38.261719 18.875 37.707031 32.117188 38.265625 35.28125 C 38.273438 35.316406 38.285156 35.347656 38.304688 35.378906 C 33.023438 35.515625 31.667969 33.921875 31.460938 33.613281 Z M 45.660156 21.441406 C 45.609375 21.292969 45.46875 21.203125 45.308594 21.230469 C 45.15625 21.257812 45.046875 21.390625 45.054688 21.546875 L 45.535156 33.585938 C 44.261719 35.023438 40.105469 35.308594 38.84375 35.363281 C 38.875 35.304688 38.890625 35.242188 38.878906 35.171875 C 38.324219 32.03125 38.917969 18.132812 38.957031 17.1875 L 39.785156 15.007812 C 39.785156 15.003906 39.785156 15 39.785156 15 C 39.792969 14.976562 39.792969 14.957031 39.796875 14.9375 C 39.800781 14.914062 39.804688 14.894531 39.804688 14.875 C 39.804688 14.871094 39.804688 14.871094 39.804688 14.867188 L 39.734375 14.152344 L 39.835938 14.074219 L 41.28125 17.019531 C 41.332031 17.125 41.441406 17.191406 41.558594 17.191406 C 41.566406 17.191406 41.578125 17.191406 41.585938 17.191406 C 41.710938 17.179688 41.820312 17.09375 41.855469 16.972656 L 42.929688 13.363281 L 46.949219 14.855469 L 51.425781 30.964844 L 48.910156 31.523438 Z M 49.585938 33.34375 C 49.488281 33.058594 49.316406 32.570312 49.148438 32.105469 L 51.597656 31.5625 L 52.023438 32.921875 Z M 49.585938 33.34375 " fill-opacity="1" fill-rule="nonzero"/></g></svg>