<svg xmlns="http://www.w3.org/2000/svg" xmlns:xlink="http://www.w3.org/1999/xlink" width="200" zoomAndPan="magnify" viewBox="0 0 150 149.999998" height="200" preserveAspectRatio="xMidYMid meet" version="1.0"><defs><clipPath id="63f7872f42"><path d="M 3.5 19.488281 L 74.75 19.488281 L 74.75 125.988281 L 3.5 125.988281 Z M 3.5 19.488281 " clip-rule="nonzero"/></clipPath><clipPath id="632a851cc6"><path d="M 77.613281 20 L 105 20 L 105 111 L 77.613281 111 Z M 77.613281 20 " clip-rule="nonzero"/></clipPath><clipPath id="441e5081b7"><path d="M 77.613281 19.488281 L 106 19.488281 L 106 112 L 77.613281 112 Z M 77.613281 19.488281 " clip-rule="nonzero"/></clipPath><clipPath id="02ae73a6bb"><path d="M 89 19.488281 L 115 19.488281 L 115 70 L 89 70 Z M 89 19.488281 " clip-rule="nonzero"/></clipPath><clipPath id="ac2cc6afdd"><path d="M 103 19.488281 L 121 19.488281 L 121 21 L 103 21 Z M 103 19.488281 " clip-rule="nonzero"/></clipPath><clipPath id="4e4884e1a9"><path d="M 119 20 L 146.613281 20 L 146.613281 112 L 119 112 Z M 119 20 " clip-rule="nonzero"/></clipPath><clipPath id="3c77753cc7"><path d="M 118 19.488281 L 146.613281 19.488281 L 146.613281 113 L 118 113 Z M 118 19.488281 " clip-rule="nonzero"/></clipPath><clipPath id="8c5eb0ad0e"><path d="M 110 19.488281 L 135 19.488281 L 135 70 L 110 70 Z M 110 19.488281 " clip-rule="nonzero"/></clipPath></defs><rect x="-15" width="180" fill="#ffffff" y="-15" height="179.999997" fill-opacity="1"/><rect x="-15" width="180" fill="#ffffff" y="-15" height="179.999997" fill-opacity="1"/><rect x="-15" width="180" fill="#ffffff" y="-15" height="179.999997" fill-opacity="1"/><g clip-path="url(#63f7872f42)"><path fill="#000000" d="M 29.398438 125.527344 C 27.636719 125.269531 26.996094 125.03125 26.410156 124.421875 C 26 123.996094 25.402344 123.671875 25.078125 123.703125 C 24.195312 123.78125 22.382812 123.0625 22.382812 122.628906 C 22.382812 122.410156 21.808594 122.164062 21.011719 122.042969 C 19.546875 121.820312 18.25 121.207031 17.601562 120.425781 C 17.132812 119.863281 15.003906 119.558594 14.183594 119.933594 C 13.0625 120.445312 10.347656 119.421875 8.746094 117.886719 C 7.597656 116.785156 6.984375 116.433594 5.898438 116.273438 C 4.152344 116.007812 3.511719 115.273438 3.90625 113.996094 C 4.066406 113.488281 4.632812 111.054688 5.164062 108.585938 C 6.546875 102.1875 6.949219 100.589844 8.625 94.78125 C 9.445312 91.9375 10.304688 88.761719 10.535156 87.726562 C 11.667969 82.667969 17.320312 69.304688 20.285156 64.667969 C 22.015625 61.964844 25.710938 56.722656 26 56.5625 C 26.671875 56.191406 27.253906 54.214844 27.261719 52.277344 C 27.265625 50.570312 26.988281 49.464844 25.652344 45.871094 C 23.707031 40.636719 22.875 37.25 23.152344 35.703125 C 23.65625 32.90625 23.746094 30.066406 23.417969 27.5 C 23.21875 25.972656 22.972656 23.714844 22.871094 22.488281 C 22.660156 19.988281 22.445312 20.222656 25.347656 19.808594 C 26.46875 19.648438 26.554688 19.695312 27.046875 20.734375 C 29.144531 25.140625 31.824219 28.160156 34.273438 28.886719 C 37.882812 29.949219 44.875 29.476562 47.878906 27.964844 C 49.371094 27.214844 52.105469 24.09375 53.417969 21.640625 C 54.417969 19.777344 55.035156 19.492188 57.148438 19.914062 C 57.882812 20.0625 58.53125 20.226562 58.585938 20.28125 C 58.644531 20.332031 58.492188 21.324219 58.246094 22.480469 C 57.824219 24.449219 57.558594 26.699219 56.808594 34.667969 C 56.429688 38.671875 55.738281 41.769531 54.734375 43.941406 C 52.832031 48.058594 52.191406 50.363281 52.316406 52.648438 C 52.441406 54.953125 52.769531 55.730469 55.738281 60.664062 C 56.910156 62.613281 57.640625 64.03125 59.144531 67.304688 C 59.511719 68.101562 60.425781 69.925781 61.179688 71.359375 C 63.3125 75.421875 68.824219 88.484375 70.132812 92.578125 C 70.550781 93.894531 71.003906 94.96875 71.140625 94.96875 C 71.273438 94.96875 71.328125 95.238281 71.257812 95.566406 C 71.1875 95.894531 71.28125 96.511719 71.46875 96.941406 C 71.65625 97.371094 71.878906 98.113281 71.960938 98.589844 C 72.039062 99.066406 72.234375 99.851562 72.394531 100.328125 C 72.550781 100.804688 72.992188 103.542969 73.371094 106.410156 C 73.75 109.277344 74.222656 112.148438 74.421875 112.785156 C 74.621094 113.421875 74.746094 114.125 74.699219 114.347656 C 74.5625 115.027344 73.296875 115.796875 71.539062 116.269531 L 69.867188 116.71875 L 69.960938 119.976562 L 66.875 120.601562 C 64.671875 121.046875 63.761719 121.359375 63.691406 121.695312 C 63.632812 121.949219 63.195312 122.226562 62.714844 122.308594 C 61.628906 122.496094 55.898438 122.929688 55.03125 122.890625 C 54.679688 122.875 54.175781 123.054688 53.914062 123.289062 C 53.570312 123.597656 52.976562 123.675781 51.792969 123.574219 C 49.800781 123.402344 49.339844 123.527344 49.339844 124.246094 C 49.339844 124.996094 48.234375 125.207031 44.222656 125.226562 C 42.011719 125.234375 40.894531 125.347656 40.894531 125.5625 C 40.894531 125.992188 32.402344 125.96875 29.398438 125.527344 Z M 29.398438 125.527344 " fill-opacity="1" fill-rule="nonzero"/></g><path stroke-linecap="butt" transform="matrix(0.139886, 0, 0, 0.140798, 61.185012, -4.759874)" fill-opacity="1" fill="#ffffff" fill-rule="evenodd" stroke-linejoin="miter" d="M 316.401634 197.992605 L 409.417927 197.992605 C 411.76358 197.992605 414.081308 198.214554 416.371111 198.65845 C 418.660915 199.130091 420.89487 199.795936 423.045051 200.683729 C 425.223157 201.599267 427.261641 202.681265 429.216351 203.985212 C 431.143137 205.289159 432.958226 206.759567 434.605767 208.42418 C 436.253309 210.061049 437.733304 211.86438 439.045753 213.806428 C 440.330277 215.748476 441.447254 217.801499 442.340836 219.965496 C 443.234418 222.129493 443.904604 224.37672 444.351395 226.651691 C 444.826111 228.954406 445.049506 231.284864 445.049506 233.615322 L 445.049506 454.370741 C 445.049506 456.701199 444.826111 459.031657 444.351395 461.306628 C 443.904604 463.609343 443.234418 465.828826 442.340836 467.992823 C 441.447254 470.15682 440.330277 472.209843 439.045753 474.151891 C 437.733304 476.09394 436.253309 477.89727 434.605767 479.561883 C 432.958226 481.226496 431.143137 482.696904 429.216351 484.000851 C 427.261641 485.277054 425.223157 486.386796 423.045051 487.27459 C 420.89487 488.190127 418.660915 488.855972 416.371111 489.299869 C 414.081308 489.771509 411.76358 489.993458 409.417927 489.993458 L 316.401634 489.993458 C 314.055981 489.993458 311.738253 489.771509 309.44845 489.299869 C 307.158646 488.855972 304.924691 488.190127 302.77451 487.27459 C 300.596404 486.386796 298.55792 485.277054 296.60321 484.000851 C 294.648499 482.696904 292.861335 481.226496 291.213794 479.561883 C 289.538328 477.89727 288.058332 476.09394 286.773808 474.151891 C 285.46136 472.209843 284.372307 470.15682 283.478725 467.992823 C 282.585143 465.828826 281.914957 463.609343 281.440241 461.306628 C 280.99345 459.031657 280.770055 456.701199 280.770055 454.370741 L 280.770055 233.615322 C 280.770055 231.284864 280.99345 228.954406 281.440241 226.651691 C 281.914957 224.37672 282.585143 222.129493 283.478725 219.965496 C 284.372307 217.801499 285.46136 215.748476 286.773808 213.806428 C 288.058332 211.86438 289.538328 210.061049 291.213794 208.42418 C 292.861335 206.759567 294.648499 205.289159 296.60321 203.985212 C 298.55792 202.681265 300.596404 201.599267 302.77451 200.683729 C 304.924691 199.795936 307.158646 199.130091 309.44845 198.65845 C 311.738253 198.214554 314.055981 197.992605 316.401634 197.992605 " stroke="#ffffff" stroke-width="0.72" stroke-opacity="1" stroke-miterlimit="4"/><g clip-path="url(#632a851cc6)"><path fill="#000000" d="M 104.5 20.234375 L 84.433594 27.664062 L 81.023438 41.859375 C 81.023438 41.859375 78.425781 55.519531 78.078125 67.285156 C 77.730469 79.050781 78.234375 96.457031 78.234375 96.457031 C 78.234375 96.457031 78.914062 104.796875 78.851562 107.375 C 78.792969 109.957031 79.007812 110.882812 79.007812 110.882812 C 79.007812 110.882812 80.703125 109.871094 84.585938 109.09375 C 88.472656 108.3125 90.320312 108.78125 90.320312 108.78125 L 89.082031 82.261719 L 91.097656 54.960938 L 93.113281 69.78125 L 89.855469 91.777344 " fill-opacity="1" fill-rule="nonzero"/></g><g clip-path="url(#441e5081b7)"><path stroke-linecap="butt" transform="matrix(0.139886, 0, 0, 0.140798, 61.185012, -4.759874)" fill="none" stroke-linejoin="miter" d="M 309.643921 177.517866 L 166.196098 230.286096 L 141.818066 331.106153 C 141.818066 331.106153 123.248317 428.125343 120.763042 511.688913 C 118.277768 595.252482 121.88002 718.877736 121.88002 718.877736 C 121.88002 718.877736 126.738871 778.110213 126.29208 796.420955 C 125.873214 814.759441 127.409058 821.334662 127.409058 821.334662 C 127.409058 821.334662 139.528263 814.149083 167.285151 808.628117 C 195.069964 803.079407 208.278222 806.408633 208.278222 806.408633 L 199.426176 618.057679 L 213.835184 424.158016 L 228.244193 529.417041 L 204.955214 685.640965 " stroke="#000000" stroke-width="1" stroke-opacity="1" stroke-miterlimit="4"/></g><path stroke-linecap="butt" transform="matrix(0.139886, 0, 0, 0.140798, 61.185012, -4.759874)" fill-opacity="1" fill="#000000" fill-rule="nonzero" stroke-linejoin="miter" d="M 257.034285 349.944023 C 257.034285 349.944023 226.708349 521.732078 215.622348 609.262974 C 204.564272 696.793871 198.811838 787.265584 190.57413 875.10166 C 189.261681 889.056665 310.928445 928.618966 327.934426 907.22869 C 344.968331 885.838414 352.312457 806.408633 352.312457 806.408633 L 372.082957 692.771057 L 371.161451 588.150134 L 370.770509 551.528649 L 372.250504 519.457107 " stroke="#000000" stroke-width="1" stroke-opacity="1" stroke-miterlimit="4"/><path fill="#333333" d="M 102.136719 20.875 C 102.136719 20.875 99.382812 26.71875 96.789062 27.3125 C 94.191406 27.902344 91.414062 25.773438 91.414062 25.773438 L 90.695312 25.769531 C 88.941406 25.753906 94.578125 42.886719 99.691406 51.515625 C 104.808594 60.140625 113.257812 68.691406 113.257812 68.691406 C 113.257812 68.691406 104.886719 38.953125 103.960938 31.40625 C 103.035156 23.863281 104.476562 21.613281 104.46875 20.679688 C 104.460938 19.746094 104.460938 20.152344 104.460938 20.152344 Z M 102.136719 20.875 " fill-opacity="1" fill-rule="nonzero"/><g clip-path="url(#02ae73a6bb)"><path stroke-linecap="butt" transform="matrix(0.139886, 0, 0, 0.140798, 61.185012, -4.759874)" fill="none" stroke-linejoin="miter" d="M 292.749638 182.067808 C 292.749638 182.067808 273.062911 223.572157 254.521086 227.789177 C 235.951337 231.978453 216.097063 216.858218 216.097063 216.858218 L 210.958967 216.830475 C 198.420896 216.719501 238.715856 338.402706 275.268941 399.688206 C 311.849951 460.945962 372.250504 521.67659 372.250504 521.67659 C 372.250504 521.67659 312.40844 310.464952 305.790349 256.864416 C 299.172258 203.291623 309.476374 187.311339 309.420525 180.680631 C 309.364676 174.049922 309.364676 176.935252 309.364676 176.935252 Z M 292.749638 182.067808 " stroke="#333333" stroke-width="1" stroke-opacity="1" stroke-miterlimit="4"/></g><g clip-path="url(#ac2cc6afdd)"><path stroke-linecap="butt" transform="matrix(0.139886, 0, 0, 0.140798, 61.185012, -4.759874)" fill="none" stroke-linejoin="miter" d="M 309.141281 177.018482 C 309.141281 177.018482 342.901923 173.162129 361.415823 172.940181 C 379.929724 172.690489 418.688839 176.324893 418.688839 176.324893 " stroke="#000000" stroke-width="1" stroke-opacity="1" stroke-miterlimit="4"/></g><g clip-path="url(#4e4884e1a9)"><path fill="#000000" d="M 119.730469 20.234375 L 139.796875 27.664062 L 143.207031 41.859375 C 143.207031 41.859375 145.804688 55.519531 146.148438 67.285156 C 146.496094 79.050781 145.996094 96.457031 145.996094 96.457031 C 145.996094 96.457031 145.316406 104.796875 145.375 107.375 C 145.433594 109.957031 145.222656 111.277344 145.222656 111.277344 C 145.222656 111.277344 143.359375 109.871094 139.640625 109.09375 C 135.921875 108.3125 133.90625 108.78125 133.90625 108.78125 L 135.144531 82.261719 L 133.132812 54.960938 L 131.117188 69.78125 L 134.371094 91.777344 " fill-opacity="1" fill-rule="nonzero"/></g><g clip-path="url(#3c77753cc7)"><path stroke-linecap="butt" transform="matrix(-0.139886, 0, 0, 0.140798, 163.043327, -4.759874)" fill="none" stroke-linejoin="miter" d="M 309.628696 177.517866 L 166.180873 230.286096 L 141.802842 331.106153 C 141.802842 331.106153 123.233092 428.125343 120.775742 511.688913 C 118.290467 595.252482 121.864795 718.877736 121.864795 718.877736 C 121.864795 718.877736 126.723647 778.110213 126.30478 796.420955 C 125.885914 814.759441 127.393833 824.136761 127.393833 824.136761 C 127.393833 824.136761 140.713789 814.149083 167.297851 808.628117 C 193.881913 803.079407 208.290921 806.408633 208.290921 806.408633 L 199.438875 618.057679 L 213.819959 424.158016 L 228.228968 529.417041 L 204.967914 685.640965 " stroke="#000000" stroke-width="1" stroke-opacity="1" stroke-miterlimit="4"/></g><path stroke-linecap="butt" transform="matrix(-0.139886, 0, 0, 0.140798, 163.043327, -4.759874)" fill-opacity="1" fill="#000000" fill-rule="nonzero" stroke-linejoin="miter" d="M 257.046985 349.944023 C 257.046985 349.944023 226.721048 521.732078 215.635048 609.262974 C 204.549047 696.793871 198.824538 787.265584 190.558905 875.10166 C 189.246457 889.056665 310.91322 928.618966 327.947125 907.22869 C 344.953106 885.838414 352.325157 806.408633 352.325157 806.408633 L 372.095657 692.771057 L 371.174151 588.150134 L 370.755284 551.528649 L 372.263204 519.457107 " stroke="#000000" stroke-width="1" stroke-opacity="1" stroke-miterlimit="4"/><path fill="#333333" d="M 122.089844 20.875 C 122.089844 20.875 124.84375 26.71875 127.441406 27.3125 C 130.035156 27.902344 132.816406 25.773438 132.816406 25.773438 L 133.53125 25.769531 C 135.289062 25.753906 129.652344 42.886719 124.535156 51.515625 C 119.421875 60.140625 110.96875 68.691406 110.96875 68.691406 C 110.96875 68.691406 119.339844 38.953125 120.269531 31.40625 C 121.195312 23.863281 119.792969 20.777344 119.792969 20.777344 L 119.738281 20.058594 Z M 122.089844 20.875 " fill-opacity="1" fill-rule="nonzero"/><g clip-path="url(#8c5eb0ad0e)"><path stroke-linecap="butt" transform="matrix(-0.139886, 0, 0, 0.140798, 163.043327, -4.759874)" fill="none" stroke-linejoin="miter" d="M 292.762337 182.067808 C 292.762337 182.067808 273.075611 223.572157 254.505861 227.789177 C 235.964036 231.978453 216.081839 216.858218 216.081839 216.858218 L 210.971667 216.830475 C 198.405671 216.719501 238.700631 338.402706 275.281641 399.688206 C 311.834726 460.945962 372.263204 521.67659 372.263204 521.67659 C 372.263204 521.67659 312.42114 310.464952 305.775124 256.864416 C 299.157033 203.291623 309.181905 181.374219 309.181905 181.374219 L 309.572847 176.269406 Z M 292.762337 182.067808 " stroke="#333333" stroke-width="1" stroke-opacity="1" stroke-miterlimit="4"/></g><path stroke-linecap="butt" transform="matrix(0.0101194, 0, 0, 0.0152583, 114.937773, 55.924276)" fill-opacity="1" fill="#000000" fill-rule="evenodd" stroke-linejoin="miter" d="M -201.141575 210.024976 C -201.141575 234.089698 -233.566961 253.290274 -273.712679 253.290274 C -313.858396 253.290274 -346.283783 234.089698 -346.283783 210.024976 C -346.283783 186.216262 -313.858396 166.759679 -273.712679 166.759679 C -233.566961 166.759679 -201.141575 186.216262 -201.141575 210.024976 Z M -201.141575 210.024976 " stroke="#000000" stroke-width="1" stroke-opacity="1" stroke-miterlimit="4"/><path stroke-linecap="butt" transform="matrix(0.0101194, 0, 0, 0.0152583, 114.937773, 28.355929)" fill-opacity="1" fill="#000000" fill-rule="evenodd" stroke-linejoin="miter" d="M -201.141575 210.152119 C -201.141575 233.960833 -233.566961 253.417416 -273.712679 253.417416 C -313.858396 253.417416 -346.283783 233.960833 -346.283783 210.152119 C -346.283783 186.087397 -313.858396 166.886821 -273.712679 166.886821 C -233.566961 166.886821 -201.141575 186.087397 -201.141575 210.152119 Z M -201.141575 210.152119 " stroke="#000000" stroke-width="1" stroke-opacity="1" stroke-miterlimit="4"/><path stroke-linecap="butt" transform="matrix(0.0101194, 0, 0, 0.0152583, 114.937773, 42.140102)" fill-opacity="1" fill="#000000" fill-rule="evenodd" stroke-linejoin="miter" d="M -201.141575 209.960575 C -201.141575 234.025297 -233.566961 253.225872 -273.712679 253.225872 C -313.858396 253.225872 -346.283783 234.025297 -346.283783 209.960575 C -346.283783 186.151861 -313.858396 166.695278 -273.712679 166.695278 C -233.566961 166.695278 -201.141575 186.151861 -201.141575 209.960575 Z M -201.141575 209.960575 " stroke="#000000" stroke-width="1" stroke-opacity="1" stroke-miterlimit="4"/></svg>